#!OML:ASF E:\Style3\Style3.ASF
:FULLY-SPECIFIED
:DEGREES
1946
root -1.15451 16.3 1.91555 -475.365 115.295 -532.693
lowerback 211.969 182.085 184.703
upperback 3.75009 -0.0485691 4.69074
thorax -12.4233 -0.031375 2.50397
lowerneck -1.07698 -2.6248 -5.22608
upperneck -30.2453 4.2178 27.5323
head -9.89276 0.329078 11.1481
rclavicle -2.18663e-014 -1.69961e-014
rhumerus -60.5256 20.9071 -75.4852
rradius 81.5122
rwrist -25.7131
rhand 33.6251 13.4202
rfingers 7.12502
rthumb 56.9332 -3.22134
lclavicle -2.18663e-014 -1.69961e-014
lhumerus -64.0945 -18.6001 91.2296
lradius 79.6036
lwrist 33.3455
lhand 20.7377 37.4332
lfingers 7.12502
lthumb 45.2217 60.8449
rfemur -92.9441 0.795358 13.0264
rtibia 50.5138
rfoot -14.5569 8.7996
rtoes -15.3848
lfemur -82.062 8.87074 -25.7721
ltibia 50.325
lfoot -15.7327 17.8428
ltoes -25.3356
1947
root -1.14905 16.2555 1.90929 -476.427 115.271 -533.5
lowerback 212.019 182.004 184.788
upperback 3.61552 0.109528 4.8117
thorax -12.6013 0.0336681 2.53137
lowerneck -1.10589 -2.65679 -5.22506
upperneck -30.6437 4.18335 27.2398
head -10.0258 0.325494 11.0659
rclavicle 6.67916e-014 4.72114e-014
rhumerus -60.4255 20.9902 -75.4578
rradius 81.4212
rwrist -25.9478
rhand 34.2311 13.394
rfingers 7.12502
rthumb 57.4653 -2.79764
lclavicle 6.67916e-014 4.72114e-014
lhumerus -64.1939 -18.5868 91.3947
lradius 79.4892
lwrist 33.0808
lhand 20.9071 37.2114
lfingers 7.12502
lthumb 45.3791 60.5601
rfemur -93.1711 1.00951 13.5033
rtibia 51.3838
rfoot -14.8736 9.11007
rtoes -14.295
lfemur -82.3555 9.17644 -25.3549
ltibia 51.5146
lfoot -16.1538 17.7737
ltoes -25.4376
1948
root -1.14501 16.2124 1.90193 -477.297 115.167 -534.181
lowerback 211.967 182.013 184.948
upperback 3.43537 0.17048 4.92143
thorax -12.7858 0.0510494 2.54451
lowerneck -1.13227 -2.61288 -5.53195
upperneck -30.8581 4.26136 27.1657
head -10.1158 0.407159 11.1202
rclavicle -3.49861e-014 1.07344e-013
rhumerus -60.3107 21.1126 -75.5596
rradius 81.1698
rwrist -25.812
rhand 34.8527 13.2804
rfingers 7.12502
rthumb 58.0088 -2.4331
lclavicle -3.49861e-014 1.07344e-013
lhumerus -64.3431 -18.4441 91.4929
lradius 79.371
lwrist 32.9001
lhand 21.0252 37.0317
lfingers 7.12502
lthumb 45.4889 60.336
rfemur -93.4674 1.16995 13.9203
rtibia 52.2259
rfoot -15.0503 9.45429
rtoes -11.8298
lfemur -82.7629 9.40297 -24.9165
ltibia 52.7115
lfoot -16.5429 17.6412
ltoes -25.4254
1949
root -1.14225 16.1968 1.88927 -477.787 115.082 -534.553
lowerback 211.777 182.139 185.212
upperback 3.24102 0.0896976 4.91824
thorax -12.922 -0.00246301 2.43315
lowerneck -1.37868 -2.52918 -5.93719
upperneck -30.8341 4.36366 27.1778
head -10.0735 0.53285 11.1951
rclavicle -6.48038e-014 -3.44891e-014
rhumerus -60.1037 21.3835 -75.719
rradius 80.9298
rwrist -25.6146
rhand 35.5326 13.0195
rfingers 7.12502
rthumb 58.6002 -2.1509
lclavicle -6.48038e-014 -3.44891e-014
lhumerus -64.4544 -18.3197 91.4366
lradius 79.305
lwrist 32.8745
lhand 21.1208 37.2342
lfingers 7.12502
lthumb 45.5777 60.5025
rfemur -93.6778 1.20035 14.2318
rtibia 52.8843
rfoot -15.3732 9.65201
rtoes -10.8616
lfemur -83.1582 9.48707 -24.5954
ltibia 53.7984
lfoot -16.9848 17.3824
ltoes -25.2177
1950
root -1.1349 16.1444 1.87507 -478.491 115.013 -535.083
lowerback 211.644 182.267 185.499
upperback 3.09297 0.0173608 4.91585
thorax -13.0292 -0.0527079 2.30721
lowerneck -1.48034 -2.52163 -5.96948
upperneck -31.1282 4.38391 26.9616
head -10.1664 0.566153 11.1371
rclavicle -3.53837e-014 2.48481e-015
rhumerus -59.7519 21.8993 -75.7671
rradius 80.7263
rwrist -25.5289
rhand 36.2569 12.8988
rfingers 7.12502
rthumb 59.2267 -1.66844
lclavicle -3.53837e-014 2.48481e-015
lhumerus -64.5156 -18.2104 91.3543
lradius 79.2426
lwrist 32.6659
lhand 21.3572 37.4793
lfingers 7.12502
lthumb 45.7972 60.6578
rfemur -93.8924 1.29402 14.584
rtibia 53.6233
rfoot -15.7994 9.71226
rtoes -11.4534
lfemur -83.5649 9.64168 -24.2285
ltibia 55.0432
lfoot -17.3401 17.1927
ltoes -25.5727
1951
root -1.12755 16.0901 1.8628 -479.387 114.997 -535.818
lowerback 211.454 182.339 185.718
upperback 2.98893 -0.0128855 4.93415
thorax -13.0635 -0.0795608 2.22092
lowerneck -1.34005 -2.58184 -5.71817
upperneck -31.8106 4.36577 26.5926
head -10.4561 0.525972 11.0116
rclavicle 2.10712e-014 -1.12711e-013
rhumerus -59.4313 22.3931 -75.8888
rradius 80.533
rwrist -25.2742
rhand 36.7914 12.4419
rfingers 7.12502
rthumb 59.6864 -1.66342
lclavicle 2.10712e-014 -1.12711e-013
lhumerus -64.5306 -18.1688 91.3386
lradius 79.1389
lwrist 32.4642
lhand 21.4356 37.3679
lfingers 7.12502
lthumb 45.8701 60.5163
rfemur -94.0671 1.47961 14.9832
rtibia 54.3084
rfoot -16.232 9.72496
rtoes -12.8868
lfemur -83.9793 9.87195 -23.8102
ltibia 56.2694
lfoot -17.5326 17.1916
ltoes -26.2169
1952
root -1.12024 16.041 1.85175 -480.343 115.157 -536.547
lowerback 211.33 182.352 185.759
upperback 2.86981 -0.033308 4.88762
thorax -13.1452 -0.0961863 2.15765
lowerneck -1.28783 -2.54586 -5.73474
upperneck -32.1502 4.47701 26.4765
head -10.6267 0.583127 11.0056
rclavicle 5.56597e-015 -1.99779e-014
rhumerus -59.2234 22.7492 -76.1874
rradius 80.3021
rwrist -24.5309
rhand 37.3394 11.7756
rfingers 7.12502
rthumb 60.1555 -1.84045
lclavicle 5.56597e-015 -1.99779e-014
lhumerus -64.615 -18.1765 91.3626
lradius 79.053
lwrist 32.2143
lhand 21.3728 37.4437
lfingers 7.12502
lthumb 45.8117 60.6162
rfemur -94.2098 1.73663 15.2309
rtibia 55.0576
rfoot -16.6547 9.78747
rtoes -14.0392
lfemur -84.2919 10.1277 -23.4446
ltibia 57.5136
lfoot -17.8336 17.0969
ltoes -26.1367
1953
root -1.11236 16.0009 1.8442 -481.436 115.39 -537.323
lowerback 211.298 182.279 185.684
upperback 2.73725 0.0290084 4.86974
thorax -13.2854 -0.0703457 2.15731
lowerneck -1.28995 -2.42685 -5.90186
upperneck -32.2681 4.65649 26.3572
head -10.712 0.706181 10.9939
rclavicle -1.78906e-014 -7.91163e-014
rhumerus -59.1718 22.8547 -76.4975
rradius 80.1529
rwrist -23.6041
rhand 37.4675 13.1188
rfingers 7.12502
rthumb 60.2648 -0.380537
lclavicle -1.78906e-014 -7.91163e-014
lhumerus -64.7691 -18.3327 91.5423
lradius 78.8997
lwrist 31.8909
lhand 21.5793 37.5088
lfingers 7.12502
lthumb 46.0034 60.6019
rfemur -94.3016 2.06444 15.3819
rtibia 55.8496
rfoot -16.8042 10.1084
rtoes -12.7661
lfemur -84.4157 10.4764 -23.1386
ltibia 58.6692
lfoot -18.0781 16.974
ltoes -26.2124
1954
root -1.10242 15.9587 1.83004 -482.073 115.538 -537.711
lowerback 211.077 182.22 185.672
upperback 2.56426 0.0962667 4.949
thorax -13.391 -0.0428355 2.22352
lowerneck -1.10949 -2.39526 -5.97227
upperneck -32.6489 4.69053 26.028
head -10.9045 0.740115 10.9114
rclavicle -7.95139e-015 -5.87409e-014
rhumerus -59.3683 22.6811 -76.6738
rradius 80.1415
rwrist -22.5582
rhand 36.7397 15.4449
rfingers 7.12502
rthumb 59.642 1.2942
lclavicle -7.95139e-015 -5.87409e-014
lhumerus -64.9021 -18.5 91.9735
lradius 78.657
lwrist 31.5357
lhand 21.6255 37.5815
lfingers 7.12502
lthumb 46.0463 60.6567
rfemur -94.5549 2.19145 15.4354
rtibia 56.7055
rfoot -16.8534 10.4693
rtoes -10.6742
lfemur -84.6461 10.6431 -22.9584
ltibia 59.7726
lfoot -18.1279 16.99
ltoes -27.3721
1955
root -1.09235 15.9098 1.80671 -482.038 115.538 -537.452
lowerback 210.719 182.363 185.874
upperback 2.37119 -0.0443533 4.95949
thorax -13.4535 -0.120114 2.17978
lowerneck -0.861596 -2.42404 -5.83596
upperneck -33.221 4.6598 25.6126
head -11.1767 0.713383 10.7778
rclavicle -4.37326e-015 -4.97956e-014
rhumerus -59.414 22.5857 -76.8514
rradius 80.1078
rwrist -21.7462
rhand 36.4725 14.5689
rfingers 7.12502
rthumb 59.4123 0.186112
lclavicle -4.37326e-015 -4.97956e-014
lhumerus -64.9477 -18.6352 92.2417
lradius 78.3993
lwrist 31.1873
lhand 22.0278 37.6943
lfingers 7.12502
lthumb 46.4192 60.6122
rfemur -94.9126 2.01082 15.4257
rtibia 57.6169
rfoot -17.0913 10.4411
rtoes -10.4457
lfemur -85.0018 10.4823 -22.8734
ltibia 60.8289
lfoot -18.319 16.8802
ltoes -27.8617
